# xmcd CD database file
#
# Track frame offsets:
#	150
#	21536
#	40186
#	57202
#	74189
#	92014
#	109692
#	124312
#	143429
#	163289
#	181889
#	200737
#
# Disc length: 2928 seconds
#
# Revision: 4
# Processed by: cddbd v1.5.2PL0 Copyright (c) Steve Scherf et al.
# Submitted via: CDex 1.70beta2
#
DISCID=b40b6e0c
DTITLE=Ann Thitima - Green Room
DYEAR=2000
DGENRE=Pop
TTITLE0=เก็บใจ
TTITLE1=ดาว
TTITLE2=ฝากรัก
TTITLE3=ตัวปลอม
TTITLE4=เงาที่หายไป
TTITLE5=ฝันกลางวัน
TTITLE6=ขอให้โชคดี
TTITLE7=ขอจันทร์
TTITLE8=รบกวนมารักกัน
TTITLE9=แทนคำนั้น
TTITLE10=ไม่เคยไม่คิดถึง
TTITLE11=ยังไม่ชิน
EXTD=YEAR: 2000
EXTT0=Tracks in English
EXTT1=
EXTT2=
EXTT3=
EXTT4=
EXTT5=
EXTT6=
EXTT7=
EXTT8=
EXTT9=
EXTT10=
EXTT11=
PLAYORDER=
